<svg width="198.333" height="50" viewBox="0 0 198.333 50" xmlns="http://www.w3.org/2000/svg"><path d="M4.902 46.375h42.75V3.625H4.902v42.75Zm34.522-25.488h-9.033v-9.033h9.033v9.033Zm-26.296-9.034h9.039v17.26h17.257v9.033H13.128V11.853ZM75.49 3.625A21.375 21.375 0 1 0 96.865 25 21.4 21.4 0 0 0 75.49 3.625Zm0 34.522A13.147 13.147 0 1 1 88.637 25 13.167 13.167 0 0 1 75.49 38.147Zm97.865-34.522A21.373 21.373 0 1 0 194.728 25a21.4 21.4 0 0 0-21.373-21.375Zm0 34.522a13.15 13.15 0 0 1-2.567-26.04 13.143 13.143 0 0 1 11.855 22.183 13.163 13.163 0 0 1-9.288 3.857ZM124.421 3.625A21.375 21.375 0 1 0 145.796 25a21.4 21.4 0 0 0-21.375-21.375Zm0 34.522a13.147 13.147 0 1 1 12.48-17.26h-12.48v8.227h12.48a13.167 13.167 0 0 1-12.48 9.033Z" class="ccustom" fill="#05386b"/></svg>